# xmcd CD database file
#
# Track frame offsets:
#	150
#	11987
#	24572
#	45742
#	61264
#	73835
#	84542
#	95070
#	111997
#	131047
#
# Disc length: 1937 seconds
#
# Revision: 0
# Processed by: cddbd v1.5.1PL0 Copyright (c) Steve Scherf et al.
# Submitted via: CDex 1.51
#
DISCID=8f078f0a
DTITLE=Various Artist - Country Gospel Hymns
DYEAR=1997
DGENRE=Country
TTITLE0=Jim Reeves/May The Good Lord Bless And Keep You
TTITLE1=Patsy Cline/Just A Closer Walk With Thee
TTITLE2=Willie Nelson/Softly And Tenderly
TTITLE3=Ray Stevens/I'll Fly Away
TTITLE4=Johnny Cash/The Old Rugged Cross
TTITLE5=Loretta Lynn/In The Sweet Bye And Bye
TTITLE6=Eddy Arnold/Take My Hand, Precious Lord
TTITLE7=Bill Anderson/Pass Me Not O' Gentle Saviour
TTITLE8=Vern Gosdin/Jesus Hold My Hand
TTITLE9=Marty Robbins/Will The Circle Be Unbroken
EXTD=YEAR: 1997
EXTT0=
EXTT1=
EXTT2=
EXTT3=
EXTT4=
EXTT5=
EXTT6=
EXTT7=
EXTT8=
EXTT9=
PLAYORDER=
